<?xml version="1.0" encoding="UTF-8"?>
<svg version="1.1" xmlns="http://www.w3.org/2000/svg" width="200" height="200">
<path d="M0 0 C66 0 132 0 200 0 C200 66 200 132 200 200 C134 200 68 200 0 200 C0 134 0 68 0 0 Z " fill="#FEFEFE" transform="translate(0,0)"/>
<path d="M0 0 C2 1 2 1 3.18359375 4.28125 C3.6092311 5.68519793 4.02674406 7.09162629 4.4375 8.5 C4.87675384 9.96509896 5.31685295 11.42994477 5.7578125 12.89453125 C5.96954102 13.60303223 6.18126953 14.3115332 6.39941406 15.04150391 C7.13738804 17.44801904 7.96725592 19.81679161 8.8125 22.1875 C9.87000676 25.58265327 10.45819536 27.54171597 10 31 C1.90198934 39.82206809 -13.52998818 44.43468074 -25 46 C-26.87623788 42.83384858 -27.6263193 40.66317842 -27 37 C-25.42587066 34.31082995 -23.5081767 31.92844737 -21.5625 29.5 C-20.45502852 28.07447031 -19.34958238 26.64736501 -18.24609375 25.21875 C-17.69550293 24.50976562 -17.14491211 23.80078125 -16.57763672 23.0703125 C-14.32523834 20.1145189 -12.21414935 17.07241303 -10.125 14 C-6.86837907 9.23667285 -3.52139248 4.57090553 0 0 Z " fill="#83C816" transform="translate(100,60)"/>
<path d="M0 0 C17.34520749 -0.72383401 17.34520749 -0.72383401 24.5 5 C27.8604676 9.48062347 27.72743601 14.65334533 27 20 C22.04949399 35.07469659 9.70436412 45.89606319 -4 53 C-6.86231064 54.39764113 -9.75457898 55.69528697 -12.6875 56.9375 C-13.35152832 57.22020752 -14.01555664 57.50291504 -14.69970703 57.79418945 C-24.40876119 61.65765801 -34.20411321 62.32677618 -44.5625 62.25 C-45.64080078 62.25773437 -46.71910156 62.26546875 -47.83007812 62.2734375 C-49.37018555 62.26957031 -49.37018555 62.26957031 -50.94140625 62.265625 C-51.86638916 62.26336914 -52.79137207 62.26111328 -53.74438477 62.25878906 C-56 62 -56 62 -58 60 C-57.030625 59.97421875 -56.06125 59.9484375 -55.0625 59.921875 C-32.02095297 59.05128758 -9.32968275 51.44022104 7.3515625 34.96875 C12.22233465 29.50888742 16.10624662 23.0678786 16.6875 15.625 C15.85628576 11.24223403 14.60233334 8.57963701 11 6 C7.41185996 4.37727375 3.77192697 3.12299052 0 2 C0 1.34 0 0.68 0 0 Z " fill="#848382" transform="translate(124,56)"/>
<path d="M0 0 C7.94699226 -0.599773 15.46697079 1.04211508 21.6875 6.25 C23.78257173 10.63967411 23.81273181 14.42973565 22.375 18.9765625 C15.27751681 34.88252928 -0.69049245 42.04925033 -16 48 C-21.90386448 50.13130286 -27.71387104 51.61869235 -34 52 C-35.00160156 52.07605469 -36.00320312 52.15210938 -37.03515625 52.23046875 C-44.73030333 52.56347511 -50.68420416 51.6332093 -57 47 C-58.7734375 44.828125 -58.7734375 44.828125 -60 43 C-59.40316406 43.2165625 -58.80632813 43.433125 -58.19140625 43.65625 C-39.42953771 49.67788983 -22.47089681 44.79690076 -5.53393555 36.15209961 C2.51870489 31.81807687 9.13184161 26.924274 12.40625 18.1015625 C13.24483801 15.13340232 13.6234165 13.047814 13 10 C9.52123726 5.43412391 5.12604788 3.2768302 0 1 C0 0.67 0 0.34 0 0 Z " fill="#B1B0B0" transform="translate(108,62)"/>
<path d="M0 0 C2.25245881 2.68841859 3.88213958 4.64641875 5 8 C4.20239258 9.63134766 4.20239258 9.63134766 2.89453125 11.4140625 C2.41072998 12.08477783 1.92692871 12.75549316 1.4284668 13.4465332 C0.89519775 14.16542725 0.36192871 14.88432129 -0.1875 15.625 C-0.7239917 16.36903076 -1.2604834 17.11306152 -1.81323242 17.87963867 C-4.11181745 21.06597153 -6.43502711 24.23374185 -8.76660156 27.39599609 C-10.45835377 29.6945209 -12.13553406 32.00317763 -13.8125 34.3125 C-14.34576904 35.02293457 -14.87903809 35.73336914 -15.4284668 36.46533203 C-15.91226807 37.13290527 -16.39606934 37.80047852 -16.89453125 38.48828125 C-17.32612549 39.07134033 -17.75771973 39.65439941 -18.20239258 40.25512695 C-19.25501836 42.55788682 -18.85139323 43.66287154 -18 46 C-17.35580847 47.27286037 -16.66800566 48.52463567 -15.9375 49.75 C-15.298125 50.8225 -14.65875 51.895 -14 53 C-18.12761455 53.08599197 -20.0771403 52.78063817 -23.28125 50.0703125 C-27.39557283 45.65176157 -27.39557283 45.65176157 -29 43 C-28.57553871 39.73185922 -27.2130329 37.56234919 -25.33203125 34.90234375 C-24.77467285 34.10924805 -24.21731445 33.31615234 -23.64306641 32.49902344 C-23.03897949 31.6537207 -22.43489258 30.80841797 -21.8125 29.9375 C-21.19552246 29.06512695 -20.57854492 28.19275391 -19.94287109 27.29394531 C-13.41882001 18.10583797 -6.73231323 9.03620545 0 0 Z " fill="#0D92E3" transform="translate(75,53)"/>
<path d="M0 0 C0.66 0 1.32 0 2 0 C5.10743802 4.14325069 5.10743802 4.14325069 4.76196289 6.89819336 C3.8623816 9.37960809 2.64970871 11.2261204 1.12109375 13.37890625 C0.53263672 14.21244629 -0.05582031 15.04598633 -0.66210938 15.90478516 C-1.28923828 16.78183105 -1.91636719 17.65887695 -2.5625 18.5625 C-3.19349609 19.46274902 -3.82449219 20.36299805 -4.47460938 21.29052734 C-7.14409308 25.08324766 -9.80760962 28.84536094 -12.77734375 32.41015625 C-16.80914037 37.07251403 -16.80914037 37.07251403 -18.03125 42.87890625 C-17.55665304 45.3879887 -16.94509446 47.63212748 -16 50 C-19.29781673 49.72156284 -20.62663773 49.43886177 -22.81054688 46.87182617 C-26.50077075 39.62253235 -26.50077075 39.62253235 -25.1640625 35.29150391 C-23.45572626 32.44587043 -21.57151013 29.90568742 -19.5 27.3125 C-18.07909995 25.39998259 -16.6585299 23.48721995 -15.23828125 21.57421875 C-14.5210791 20.63884277 -13.80387695 19.7034668 -13.06494141 18.73974609 C-9.61141511 14.15763778 -6.49418597 9.35417308 -3.328125 4.5715332 C-2.26862118 3.01260206 -1.14122438 1.50014052 0 0 Z " fill="#114790" transform="translate(87,57)"/>
<path d="M0 0 C0.99 0.33 1.98 0.66 3 1 C2.6690332 1.45624756 2.33806641 1.91249512 1.99707031 2.38256836 C-4.83314713 11.80408475 -11.62418176 21.24991298 -18.30371094 30.77905273 C-21.89908199 35.89908199 -21.89908199 35.89908199 -23 37 C-22.91062197 38.52519276 -22.75462854 40.04681929 -22.5625 41.5625 C-22.46066406 42.38878906 -22.35882813 43.21507812 -22.25390625 44.06640625 C-22.12822266 45.02353516 -22.12822266 45.02353516 -22 46 C-3.79828151 40.938213 -3.79828151 40.938213 12 31 C12.90098994 28.37257656 12.90098994 28.37257656 13 26 C15.1385485 28.1385485 15.42655063 29.13275314 16 32 C9.33908007 37.01375101 2.77950664 40.98445892 -5 44 C-6.2065625 44.46792969 -7.413125 44.93585938 -8.65625 45.41796875 C-18.37830516 48.93463733 -27.68519086 50.1420826 -38 49 C-38.66 48.34 -39.32 47.68 -40 47 C-38.35 47 -36.7 47 -35 47 C-34.67 46.01 -34.34 45.02 -34 44 C-33.01 44 -32.02 44 -31 44 C-30.67 44.66 -30.34 45.32 -30 46 C-27.97536745 46.65213292 -27.97536745 46.65213292 -26 47 C-26.34417969 46.45214844 -26.68835938 45.90429688 -27.04296875 45.33984375 C-28.47608534 42.33176628 -29.02074199 40.35605336 -29 37 C-26.41509494 32.22578332 -23.08403983 28.24196635 -19.63574219 24.06884766 C-16.33877622 19.89892384 -13.50417523 15.38761781 -10.61865234 10.92724609 C-9.48644822 9.23296082 -8.2512134 7.60840101 -7 6 C-5.33333333 6 -3.66666667 6 -2 6 C-2 5.01 -2 4.02 -2 3 C-1.34 3 -0.68 3 0 3 C0 2.01 0 1.02 0 0 Z " fill="#F2F6F8" transform="translate(97,60)"/>
<path d="M0 0 C3 1 3 1 4 3 C4.99 3.33 5.98 3.66 7 4 C5.98112465 5.54296139 4.95963775 7.08419787 3.9375 8.625 C3.22851562 9.70652344 2.51953125 10.78804687 1.7890625 11.90234375 C-0.37017667 15.13626145 -2.65800117 18.25751444 -4.9765625 21.37890625 C-5.6687085 22.33394043 -6.36085449 23.28897461 -7.07397461 24.27294922 C-8.4695929 26.19750636 -9.88944576 28.10474745 -11.33422852 29.99267578 C-15.02276589 34.86243263 -15.02276589 34.86243263 -15.75244141 40.67822266 C-15.0059362 42.933612 -14.16531499 44.93330481 -13 47 C-15.80794805 50.10044264 -17.77527764 50.73595485 -22 51 C-22.99 50.34 -23.98 49.68 -25 49 C-20.25 48 -20.25 48 -18 48 C-18.37253906 47.55269531 -18.74507812 47.10539062 -19.12890625 46.64453125 C-19.60199219 46.03996094 -20.07507812 45.43539062 -20.5625 44.8125 C-21.03816406 44.22082031 -21.51382813 43.62914062 -22.00390625 43.01953125 C-23 41 -23 41 -22.98828125 38.71875 C-21.56667311 34.80792285 -19.18923844 31.93180354 -16.625 28.6875 C-15.5380637 27.27129421 -14.45349287 25.8532703 -13.37109375 24.43359375 C-12.81534668 23.70640137 -12.25959961 22.97920898 -11.68701172 22.22998047 C-8.95332264 18.61644704 -6.29961055 14.95213306 -3.6875 11.25 C-3.20168457 10.58315186 -2.71586914 9.91630371 -2.21533203 9.22924805 C0.37641198 5.83764728 0.37641198 5.83764728 0.61791992 1.79199219 C0.41400635 1.20063477 0.21009277 0.60927734 0 0 Z " fill="#E1F6FC" transform="translate(78,57)"/>
<path d="M0 0 C4.25331827 0.86802414 6.18199992 2.40158324 9.0625 5.625 C9.64489453 9.77456101 9.61116881 13.18429711 7.0625 16.625 C3.84294012 18.92468563 0.93690468 19.17848638 -2.9375 18.625 C-5.79551731 16.63681405 -7.55651083 15.14895669 -8.421875 11.6875 C-8.69476358 7.68513415 -8.18016331 5.9675835 -5.8125 2.625 C-2.9375 0.625 -2.9375 0.625 0 0 Z " fill="#454545" transform="translate(54.9375,127.375)"/>
<path d="M0 0 C8.11111111 0 8.11111111 0 12 3 C14.34168764 6.51253146 14.49623677 7.86469356 14 12 C12.20006226 14.69990662 10.916227 16.5418865 8 18 C5.36 18 2.72 18 0 18 C0 12.06 0 6.12 0 0 Z " fill="#565656" transform="translate(30,128)"/>
<path d="M0 0 C1.2065625 0.0309375 1.2065625 0.0309375 2.4375 0.0625 C3.12617618 10.81350043 3.12617618 10.81350043 0.5625 14.6875 C-1.91854771 17.46043568 -2.72446291 17.95076172 -6.375 18.4375 C-9.5625 18.0625 -9.5625 18.0625 -12.4375 16.3125 C-15.63305903 11.42517442 -14.97019141 6.74300025 -14.5625 1.0625 C-12.9125 1.0625 -11.2625 1.0625 -9.5625 1.0625 C-9.2325 4.6925 -8.9025 8.3225 -8.5625 12.0625 C-7.2425 11.7325 -5.9225 11.4025 -4.5625 11.0625 C-4.50191406 10.35222656 -4.44132812 9.64195312 -4.37890625 8.91015625 C-4.29511719 7.99105469 -4.21132812 7.07195312 -4.125 6.125 C-4.04378906 5.20847656 -3.96257812 4.29195312 -3.87890625 3.34765625 C-3.43241544 0.12300042 -3.2948538 0.08036229 0 0 Z " fill="#194E91" transform="translate(95.5625,127.9375)"/>
<path d="M0 0 C3.48763093 1.74381547 6.03368051 3.52806709 9 6 C11.31 4.02 13.62 2.04 16 0 C16 5.61 16 11.22 16 17 C15.01 17 14.02 17 13 17 C12.67 14.36 12.34 11.72 12 9 C10.68 9.99 9.36 10.98 8 12 C7.01 11.01 6.02 10.02 5 9 C4.67 11.64 4.34 14.28 4 17 C2.68 17 1.36 17 0 17 C0 11.39 0 5.78 0 0 Z " fill="#4C4B4C" transform="translate(100,128)"/>
<path d="M0 0 C8 0 8 0 11 2 C11.43132515 6.05445642 11.30019361 7.54970958 9 11 C9.80404463 14.1628485 9.80404463 14.1628485 11 17 C9.125 16.75 9.125 16.75 7 16 C5.875 14 5.875 14 5 12 C4.34 11.67 3.68 11.34 3 11 C3 12.98 3 14.96 3 17 C2.01 17 1.02 17 0 17 C0 11.39 0 5.78 0 0 Z " fill="#626262" transform="translate(141,128)"/>
<path d="M0 0 C2.51242417 3.03794555 3.88228534 5.91438973 5.1875 9.625 C5.53167969 10.58664063 5.87585938 11.54828125 6.23046875 12.5390625 C7 15 7 15 7 17 C3.7 16.34 0.4 15.68 -3 15 C-3 15.66 -3 16.32 -3 17 C-4.32 16.67 -5.64 16.34 -7 16 C-6.02394493 13.51956646 -5.04432337 11.04064915 -4.0625 8.5625 C-3.78470703 7.85544922 -3.50691406 7.14839844 -3.22070312 6.41992188 C-1.11328125 1.11328125 -1.11328125 1.11328125 0 0 Z " fill="#3B3A3B" transform="translate(161,128)"/>
<path d="M0 0 C0 1.32 0 2.64 0 4 C-1.98 4.33 -3.96 4.66 -6 5 C-7.01540112 9.10223585 -7.01540112 9.10223585 -6 13 C-3.67843403 13.40729228 -1.3431213 13.74438677 1 14 C1 14.99 1 15.98 1 17 C-2.1875 17.8125 -2.1875 17.8125 -6 18 C-8.97140914 16.0401344 -10.60630913 14.59076718 -11.48046875 11.05859375 C-11.76131609 7.05841674 -11.24095178 5.34016722 -8.875 2 C-5.57244809 -0.29742742 -3.9354597 -0.45761159 0 0 Z " fill="#484848" transform="translate(78,128)"/>
<path d="M0 0 C3.96 0 7.92 0 12 0 C12 1.32 12 2.64 12 4 C10.68 4 9.36 4 8 4 C8 8.62 8 13.24 8 18 C6.68 18 5.36 18 4 18 C4 13.38 4 8.76 4 4 C2.68 4 1.36 4 0 4 C0 2.68 0 1.36 0 0 Z " fill="#515151" transform="translate(126,128)"/>
<path d="M0 0 C-1.32 0.33 -2.64 0.66 -4 1 C-3.97679688 1.60328125 -3.95359375 2.2065625 -3.9296875 2.828125 C-3.90261719 4.02695313 -3.90261719 4.02695313 -3.875 5.25 C-3.85179688 6.03890625 -3.82859375 6.8278125 -3.8046875 7.640625 C-4.0171622 10.20731941 -4.71345895 11.7916067 -6 14 C-9.375 14.1875 -9.375 14.1875 -13 14 C-15 11 -15 11 -14.6875 7.875 C-14 5 -14 5 -13 4 C-11.00041636 3.95919217 -8.99954746 3.95745644 -7 4 C-7 3.01 -7 2.02 -7 1 C-4.53721199 -0.231394 -2.7204945 -0.07159196 0 0 Z " fill="#E4E9EE" transform="translate(85,128)"/>
<path d="M0 0 C2.1385485 2.1385485 2.42655063 3.13275314 3 6 C-6.24417095 12.95819375 -19.94487673 22 -32 22 C-32 21.01 -32 20.02 -32 19 C-30.85144531 18.6596875 -29.70289062 18.319375 -28.51953125 17.96875 C-18.78923718 14.97667145 -8.78843662 11.83959155 -1 5 C-0.08393919 2.37117828 -0.08393919 2.37117828 0 0 Z " fill="#E9F7D4" transform="translate(110,86)"/>
<path d="M0 0 C0.99 0.33 1.98 0.66 3 1 C2.65332275 1.47719482 2.30664551 1.95438965 1.94946289 2.44604492 C-5.14681314 12.22175466 -12.18164412 22.02793429 -19 32 C-19.66 30.68 -20.32 29.36 -21 28 C-20.34 27.67 -19.68 27.34 -19 27 C-18.690625 26.38125 -18.38125 25.7625 -18.0625 25.125 C-16.9574531 22.91490619 -15.89108398 21.57590332 -14 20 C-13.34 20 -12.68 20 -12 20 C-11.8453125 18.7315625 -11.8453125 18.7315625 -11.6875 17.4375 C-10.89504137 13.47520685 -9.89276847 10.57522933 -8 7 C-5.76419496 5.98372498 -4.42194077 6 -2 6 C-2 5.01 -2 4.02 -2 3 C-1.34 3 -0.68 3 0 3 C0 2.01 0 1.02 0 0 Z " fill="#EEF9E4" transform="translate(97,60)"/>
<path d="M0 0 C2.5 0.25 2.5 0.25 4.5 2.25 C4.75 5.25 4.75 5.25 4.5 8.25 C2.5 10.25 2.5 10.25 -0.5 10.5625 C-1.49 10.459375 -2.48 10.35625 -3.5 10.25 C-5.5 7.25 -5.5 7.25 -5.25 4.6875 C-4.24098289 1.40819438 -3.4742892 0.34742892 0 0 Z " fill="#F5F5F5" transform="translate(55.5,131.75)"/>
<path d="M0 0 C1.65 0 3.3 0 5 0 C5 3.63 5 7.26 5 11 C-1.28571429 13.42857143 -1.28571429 13.42857143 -5 12 C-4.01 11.67 -3.02 11.34 -2 11 C-1.93941406 10.28972656 -1.87882812 9.57945312 -1.81640625 8.84765625 C-1.69072266 7.46900391 -1.69072266 7.46900391 -1.5625 6.0625 C-1.48128906 5.14597656 -1.40007812 4.22945312 -1.31640625 3.28515625 C-1 1 -1 1 0 0 Z " fill="#265698" transform="translate(93,128)"/>
<path d="M0 0 C2.64 0 5.28 0 8 0 C7.67 0.99 7.34 1.98 7 3 C5.68 3 4.36 3 3 3 C3 4.65 3 6.3 3 8 C3.99 8 4.98 8 6 8 C6 8.66 6 9.32 6 10 C5.01 10 4.02 10 3 10 C3 12.31 3 14.62 3 17 C2.01 17 1.02 17 0 17 C0 11.39 0 5.78 0 0 Z " fill="#383838" transform="translate(141,128)"/>
<path d="M0 0 C1.32 0 2.64 0 4 0 C4 5.61 4 11.22 4 17 C2.68 17 1.36 17 0 17 C0 11.39 0 5.78 0 0 Z " fill="#555555" transform="translate(120,128)"/>
<path d="M0 0 C2.25245881 2.68841859 3.88213958 4.64641875 5 8 C3.68 9.32 2.36 10.64 1 12 C1 10.68 1 9.36 1 8 C0.236875 8.680625 -0.52625 9.36125 -1.3125 10.0625 C-2.199375 10.701875 -3.08625 11.34125 -4 12 C-4.99 11.67 -5.98 11.34 -7 11 C-5.22054913 6.95579349 -2.60470327 3.53921513 0 0 Z " fill="#1593DD" transform="translate(75,53)"/>
<path d="M0 0 C2.08304538 -0.05418326 4.16649768 -0.09287551 6.25 -0.125 C7.99023438 -0.15980469 7.99023438 -0.15980469 9.765625 -0.1953125 C12.85216691 -0.00892712 14.51148161 0.21063677 17 2 C17.33 2.99 17.66 3.98 18 5 C11.19120886 6.81567764 6.34952814 4.67529847 0 2 C0 1.34 0 0.68 0 0 Z " fill="#908F8E" transform="translate(124,56)"/>
<path d="M0 0 C0 5.61 0 11.22 0 17 C-0.99 17 -1.98 17 -3 17 C-3 14.03 -3 11.06 -3 8 C-3.99 7.67 -4.98 7.34 -6 7 C-2.86206897 0 -2.86206897 0 0 0 Z " fill="#333333" transform="translate(116,128)"/>
<path d="M0 0 C2.48728231 2.91985315 3.71066493 5.14219907 4 9 C3.0625 11.3125 3.0625 11.3125 2 13 C1.01 13 0.02 13 -1 13 C-1 11.68 -1 10.36 -1 9 C-1.99 9.33 -2.98 9.66 -4 10 C-3.52449439 8.51965236 -3.04448784 7.04074979 -2.5625 5.5625 C-2.29566406 4.73878906 -2.02882812 3.91507813 -1.75390625 3.06640625 C-1 1 -1 1 0 0 Z " fill="#454344" transform="translate(161,128)"/>
<path d="M0 0 C1 2 1 2 0.0625 5.125 C-0.288125 6.07375 -0.63875 7.0225 -1 8 C-1.66 8 -2.32 8 -3 8 C-3.33 8.99 -3.66 9.98 -4 11 C-4.99 11.495 -4.99 11.495 -6 12 C-7.23053612 14.09914985 -7.96438836 15.6973011 -8.25 18.125 C-8.4975 18.74375 -8.745 19.3625 -9 20 C-10.97932507 20.72575252 -12.98013756 21.39617869 -15 22 C-10.30987623 14.42251879 -5.3223643 7.14717492 0 0 Z " fill="#E5F1F9" transform="translate(86,72)"/>
<path d="M0 0 C4.875 0.875 4.875 0.875 6 2 C6.1875 4.9375 6.1875 4.9375 6 8 C5.34 8.66 4.68 9.32 4 10 C2.68 10 1.36 10 0 10 C0 6.7 0 3.4 0 0 Z " fill="#F8F8F8" transform="translate(34,132)"/>
<path d="M0 0 C0.66 0.33 1.32 0.66 2 1 C2.36619718 6.49295775 2.36619718 6.49295775 0.78125 8.6875 C-1.52043454 10.38347808 -2.86106749 10.31038837 -5.6875 10.1875 C-6.89986328 10.14689453 -6.89986328 10.14689453 -8.13671875 10.10546875 C-8.75160156 10.07066406 -9.36648437 10.03585938 -10 10 C-10 8.68 -10 7.36 -10 6 C-8.329375 6.061875 -8.329375 6.061875 -6.625 6.125 C-2.95633975 6.41121859 -2.95633975 6.41121859 -1 4 C-0.3574765 1.93125966 -0.3574765 1.93125966 0 0 Z " fill="#383838" transform="translate(41,135)"/>
<path d="M0 0 C0.66 0.33 1.32 0.66 2 1 C1.505 1.515625 1.01 2.03125 0.5 2.5625 C-1.49649241 5.80680017 -1.21564385 8.26217334 -1 12 C-2.32 12 -3.64 12 -5 12 C-5.66 9.69 -6.32 7.38 -7 5 C-2.25 1.125 -2.25 1.125 0 0 Z " fill="#E9F6E6" transform="translate(75,92)"/>
<path d="M0 0 C3.32710168 4.99065252 5.58827908 10.92111612 5 17 C3.02 17.99 3.02 17.99 1 19 C1.20625 18.29875 1.4125 17.5975 1.625 16.875 C2.21671659 13.96847242 2.21671659 13.96847242 1.0625 11.1875 C-0.25763258 7.22710225 -0.14333133 4.15660871 0 0 Z " fill="#92C531" transform="translate(105,74)"/>
<path d="M0 0 C0.66 0 1.32 0 2 0 C2.3125 2.6875 2.3125 2.6875 2 6 C-0.5 8.875 -0.5 8.875 -3 11 C-3.66 9.02 -4.32 7.04 -5 5 C-4.360625 4.731875 -3.72125 4.46375 -3.0625 4.1875 C-0.66868314 3.11332248 -0.66868314 3.11332248 0 0 Z " fill="#0D90E4" transform="translate(74,61)"/>
<path d="M0 0 C0.66 0.33 1.32 0.66 2 1 C2.62669199 3.16467461 3.15427374 5.35864524 3.625 7.5625 C3.88539062 8.76003906 4.14578125 9.95757812 4.4140625 11.19140625 C4.60742188 12.11824219 4.80078125 13.04507813 5 14 C4.34 14 3.68 14 3 14 C3 12.35 3 10.7 3 9 C2.34 9 1.68 9 1 9 C1 7.35 1 5.7 1 4 C0.01 4.495 0.01 4.495 -1 5 C-1 5.99 -1 6.98 -1 8 C-2.32 7.67 -3.64 7.34 -5 7 C-3.35 4.69 -1.7 2.38 0 0 Z " fill="#92C439" transform="translate(100,60)"/>
<path d="M0 0 C-0.020625 1.093125 -0.04125 2.18625 -0.0625 3.3125 C-0.18544452 6.94384191 -0.18544452 6.94384191 1 10 C-0.32 10.33 -1.64 10.66 -3 11 C-4.60725635 7.78548731 -4.05748185 4.56387464 -4 1 C-2 0 -2 0 0 0 Z " fill="#393939" transform="translate(51,132)"/>
<path d="M0 0 C-0.33 1.32 -0.66 2.64 -1 4 C-1.99 3.67 -2.98 3.34 -4 3 C-4 3.99 -4 4.98 -4 6 C-5.32 6 -6.64 6 -8 6 C-8.99 6.495 -8.99 6.495 -10 7 C-9.75 4.625 -9.75 4.625 -9 2 C-6.09557968 -0.17831524 -3.54875053 -0.19715281 0 0 Z " fill="#064293" transform="translate(87,69)"/>
<path d="M0 0 C0 1.32 0 2.64 0 4 C-6.75 5.125 -6.75 5.125 -9 4 C-8.67 3.01 -8.34 2.02 -8 1 C-5.29120665 -0.35439668 -2.99066732 -0.06501451 0 0 Z " fill="#4D4D4D" transform="translate(78,128)"/>
<path d="M0 0 C1 3 1 3 -0.21484375 5.48046875 C-0.78332031 6.37378906 -1.35179688 7.26710938 -1.9375 8.1875 C-2.50339844 9.08855469 -3.06929688 9.98960938 -3.65234375 10.91796875 C-4.09707031 11.60503906 -4.54179688 12.29210937 -5 13 C-5.99 12.34 -6.98 11.68 -8 11 C-5.36 7.37 -2.72 3.74 0 0 Z " fill="#8FC732" transform="translate(84,82)"/>
<path d="M0 0 C4.875 4.625 4.875 4.625 6 8 C2.6875 7.8125 2.6875 7.8125 -1 7 C-2.9375 4.4375 -2.9375 4.4375 -4 2 C-2.66666667 2 -1.33333333 2 0 2 C0 1.34 0 0.68 0 0 Z " fill="#2A90D1" transform="translate(55,98)"/>
<path d="M0 0 C0.99 0 1.98 0 3 0 C1.65378455 3.80863968 -0.05358737 6.65409851 -2.5625 9.8125 C-3.49255859 10.99779297 -3.49255859 10.99779297 -4.44140625 12.20703125 C-4.95574219 12.79871094 -5.47007813 13.39039062 -6 14 C-6.33 14 -6.66 14 -7 14 C-7 12.35 -7 10.7 -7 9 C-6.01 8.67 -5.02 8.34 -4 8 C-3.67 7.01 -3.34 6.02 -3 5 C-2.34 4.67 -1.68 4.34 -1 4 C-0.34786708 1.97536745 -0.34786708 1.97536745 0 0 Z " fill="#2291D8" transform="translate(68,72)"/>
<path d="M0 0 C1.32 0 2.64 0 4 0 C4 1.65 4 3.3 4 5 C3.01 5.33 2.02 5.66 1 6 C1.33 7.32 1.66 8.64 2 10 C1.34 10 0.68 10 0 10 C0 6.7 0 3.4 0 0 Z " fill="#0A3F84" transform="translate(81,129)"/>
<path d="M0 0 C0 3.11227195 -0.45627049 5.94152152 -1 9 C-0.34 9 0.32 9 1 9 C0.67 9.99 0.34 10.98 0 12 C-2.0625 10.25 -2.0625 10.25 -4 8 C-3.89464263 4.62856431 -2.08938984 2.54360502 0 0 Z " fill="#2493D8" transform="translate(50,88)"/>
<path d="M0 0 C0 3.3 0 6.6 0 10 C-0.99 9.67 -1.98 9.34 -3 9 C-3 6.36 -3 3.72 -3 1 C-1 0 -1 0 0 0 Z " fill="#484848" transform="translate(34,132)"/>
<path d="M0 0 C0.66 0 1.32 0 2 0 C3.25664978 2.90600261 4 4.79604584 4 8 C2.35 7.67 0.7 7.34 -1 7 C-0.67 4.69 -0.34 2.38 0 0 Z " fill="#255492" transform="translate(67,99)"/>
<path d="M0 0 C0.0825 0.61875 0.165 1.2375 0.25 1.875 C0.79394438 4.17972859 0.79394438 4.17972859 3 5.0625 C3.66 5.371875 4.32 5.68125 5 6 C5.33 6.99 5.66 7.98 6 9 C5.01 10.485 5.01 10.485 4 12 C3.13624104 10.38007835 2.28424146 8.75388139 1.4375 7.125 C0.72400391 5.76761719 0.72400391 5.76761719 -0.00390625 4.3828125 C-0.33261719 3.59648438 -0.66132812 2.81015625 -1 2 C-0.67 1.34 -0.34 0.68 0 0 Z " fill="#17468E" transform="translate(62,93)"/>
<path d="M0 0 C2.1385485 2.1385485 2.42655063 3.13275314 3 6 C-1.625 10 -1.625 10 -5 10 C-4 7 -4 7 -1 5 C-0.27034634 2.43717258 -0.27034634 2.43717258 0 0 Z " fill="#ECF8DF" transform="translate(110,86)"/>
<path d="M0 0 C2.1519437 3.22791555 2.20086443 4.28400809 2 8 C0.68 8 -0.64 8 -2 8 C-2.125 5.125 -2.125 5.125 -2 2 C-1.34 1.34 -0.68 0.68 0 0 Z " fill="#0291EC" transform="translate(59,78)"/>
<path d="M0 0 C0.99 0.33 1.98 0.66 3 1 C0.36 4.63 -2.28 8.26 -5 12 C-5.33 10.68 -5.66 9.36 -6 8 C-4.68 7.34 -3.36 6.68 -2 6 C-2 5.01 -2 4.02 -2 3 C-1.34 3 -0.68 3 0 3 C0 2.01 0 1.02 0 0 Z " fill="#EFFCD2" transform="translate(97,60)"/>
<path d="M0 0 C0.66 0.33 1.32 0.66 2 1 C2 2.98 2 4.96 2 7 C1.01 7.495 1.01 7.495 0 8 C-0.66 7.67 -1.32 7.34 -2 7 C-2.125 4.625 -2.125 4.625 -2 2 C-1.34 1.34 -0.68 0.68 0 0 Z " fill="#F9FDFA" transform="translate(59,92)"/>
<path d="M0 0 C1.1446875 0.3403125 1.1446875 0.3403125 2.3125 0.6875 C1.3225 2.0075 0.3325 3.3275 -0.6875 4.6875 C-1.3475 4.0275 -2.0075 3.3675 -2.6875 2.6875 C-3.3475 4.6675 -4.0075 6.6475 -4.6875 8.6875 C-5.3475 8.3575 -6.0075 8.0275 -6.6875 7.6875 C-6.32553085 5.00892828 -5.94762724 3.07769086 -4.4375 0.8125 C-2.6875 -0.3125 -2.6875 -0.3125 0 0 Z " fill="#D7F5FB" transform="translate(61.6875,90.3125)"/>
<path d="M0 0 C2.475 0.99 2.475 0.99 5 2 C5 2.66 5 3.32 5 4 C4.34 4 3.68 4 3 4 C3 5.32 3 6.64 3 8 C2.34 8 1.68 8 1 8 C1 7.01 1 6.02 1 5 C0.34 5 -0.32 5 -1 5 C-0.67 3.35 -0.34 1.7 0 0 Z " fill="#034092" transform="translate(74,77)"/>
<path d="M0 0 C2.475 0.495 2.475 0.495 5 1 C5.33 2.32 5.66 3.64 6 5 C4.35 5 2.7 5 1 5 C0.67 3.35 0.34 1.7 0 0 Z " fill="#014093" transform="translate(85,140)"/>
<path d="M0 0 C2.625 0.375 2.625 0.375 5 1 C2.64722731 3.72426311 0.37503669 4.8141763 -3 6 C-2.42655063 3.13275314 -2.1385485 2.1385485 0 0 Z " fill="#88C62A" transform="translate(101,92)"/>
<path d="M0 0 C1.32 0.33 2.64 0.66 4 1 C3.01 1.33 2.02 1.66 1 2 C0.835 2.66 0.67 3.32 0.5 4 C0.335 4.66 0.17 5.32 0 6 C-0.99 6.33 -1.98 6.66 -3 7 C-3 5.68 -3 4.36 -3 3 C-2.34 3 -1.68 3 -1 3 C-0.67 2.01 -0.34 1.02 0 0 Z " fill="#053F94" transform="translate(66,90)"/>
<path d="M0 0 C0.99 0.33 1.98 0.66 3 1 C2.67 2.98 2.34 4.96 2 7 C1.01 7.33 0.02 7.66 -1 8 C-1.125 2.25 -1.125 2.25 0 0 Z " fill="#3B3B3B" transform="translate(68,131)"/>
<path d="M0 0 C0.66 0 1.32 0 2 0 C1.67 1.65 1.34 3.3 1 5 C0.01 5.33 -0.98 5.66 -2 6 C-2.33 6.66 -2.66 7.32 -3 8 C-3.66 7.67 -4.32 7.34 -5 7 C-4.21654285 5.82780457 -3.42297164 4.66236332 -2.625 3.5 C-2.18414062 2.8503125 -1.74328125 2.200625 -1.2890625 1.53125 C-0.65097656 0.77328125 -0.65097656 0.77328125 0 0 Z " fill="#184A8E" transform="translate(68,85)"/>
<path d="M0 0 C2.45823172 3.68734758 3.01242616 6.69699971 4 11 C2.68 10.67 1.36 10.34 0 10 C0 6.7 0 3.4 0 0 Z " fill="#97CB43" transform="translate(105,74)"/>
<path d="M0 0 C2.35953094 2.35953094 2.49141413 3.77895617 3 7 C2.01 7 1.02 7 0 7 C0 5.68 0 4.36 0 3 C-0.99 3.33 -1.98 3.66 -3 4 C-3 3.34 -3 2.68 -3 2 C-2.01 1.34 -1.02 0.68 0 0 Z " fill="#7C7B7B" transform="translate(160,134)"/>
<path d="M0 0 C0.66 0 1.32 0 2 0 C2 0.66 2 1.32 2 2 C2.99 2 3.98 2 5 2 C5 2.66 5 3.32 5 4 C3.02 4.33 1.04 4.66 -1 5 C-0.67 3.35 -0.34 1.7 0 0 Z " fill="#F2F7E8" transform="translate(73,104)"/>
<path d="M0 0 C2.475 0.99 2.475 0.99 5 2 C4.34 3.32 3.68 4.64 3 6 C2.34 5.01 1.68 4.02 1 3 C0.01 3.99 -0.98 4.98 -2 6 C-1.125 1.125 -1.125 1.125 0 0 Z " fill="#D7F5FD" transform="translate(74,51)"/>
<path d="M0 0 C0.33 0.99 0.66 1.98 1 3 C1.66 3 2.32 3 3 3 C2.67 4.65 2.34 6.3 2 8 C1.67 7.34 1.34 6.68 1 6 C0.01 5.67 -0.98 5.34 -2 5 C-1.34 3.35 -0.68 1.7 0 0 Z " fill="#4C4C4C" transform="translate(60,136)"/>
<path d="M0 0 C2.31 0 4.62 0 7 0 C7 0.66 7 1.32 7 2 C4.36 2.33 1.72 2.66 -1 3 C-0.67 2.01 -0.34 1.02 0 0 Z " fill="#343434" transform="translate(53,129)"/>
<path d="M0 0 C0.99 0.99 1.98 1.98 3 3 C1.515 5.475 1.515 5.475 0 8 C-0.98120464 4.94736336 -0.98120464 3.05263664 0 0 Z " fill="#2194D5" transform="translate(77,57)"/>
</svg>
